DataType=double
version=3
OpenSimVersion=4.3-2021-07-13-51ee73d
endheader
time	ground_force_r_vx	ground_force_r_vy	ground_force_r_vz	ground_force_r_px	ground_force_r_py	ground_force_r_pz	ground_force_l_vx	ground_force_l_vy	ground_force_l_vz	ground_force_l_px	ground_force_l_py	ground_force_l_pz	ground_torque_r_x	ground_torque_r_y	ground_torque_r_z	ground_torque_l_x	ground_torque_l_y	ground_torque_l_z
1.784	-80.98781140825939	82.45023609240623	0	0	0	0	0	0	0	0	0	0	0	0	10.96657249300311	0	0	0
1.787660517256189	32.49257228871997	220.2234498448001	0	0	0	0	0	0	0	0	0	0	0	0	38.0915512285975	0	0	0
1.791321034512378	-10.53672513342434	451.5203292056716	0	0	0	0	2.982209522106459e-22	-1.778589993121413e-22	0	0	0	0	0	0	79.29262778472705	0	0	4.556875237549197e-23
1.794981551768567	-49.34334269359294	558.2240100871215	0	0	0	0	1.276153835607607e-18	-6.706864391638739e-19	0	0	0	0	0	0	95.49632228964305	0	0	2.074781914563709e-19
1.798642069024755	32.39294460717828	661.4193525671742	0	0	0	0	3.108806676275725e-20	-1.615560651881314e-20	0	0	0	0	0	0	114.273586118003	0	0	5.132829305285291e-21
1.802302586280944	-32.64751387277635	723.9639100027966	0	0	0	0	4.840320481714571e-24	-2.583163249244094e-24	0	0	0	0	0	0	122.7183784144827	0	0	8.028561053474839e-25
1.805963103537133	-6.793668022876529	752.891637772133	0	0	0	0	0	0	0	0	0	0	0	0	127.5834207195314	0	0	0
1.809623620793322	-44.19768648181085	793.1548406438574	0	0	0	0	0	0	0	0	0	0	0	0	133.4340456465201	0	0	0
1.813284138049511	-40.60803796607981	831.7328256197543	0	0	0	0	0	0	0	0	0	0	0	0	140.23363619674	0	0	0
1.816944655305699	-71.49426169049089	857.5176295893862	0	0	0	0	0	0	0	0	0	0	0	0	143.7520707523384	0	0	0
1.820605172561888	-78.81953741048818	888.1596674622031	0	0	0	0	0	0	0	0	0	0	0	0	148.3363102067919	0	0	0
1.824265689818077	-97.7168311062521	924.8530394093862	0	0	0	0	0	0	0	0	0	0	0	0	153.4518239770305	0	0	0
1.827926207074266	-104.9557313984257	965.9603324531789	0	0	0	0	0	0	0	0	0	0	0	0	159.950871797069	0	0	0
1.831586724330455	-115.5142287067808	1006.637209770167	0	0	0	0	0	0	0	0	0	0	0	0	166.4054058371681	0	0	0
1.835247241586643	-116.218233614861	1054.123872965045	0	0	0	0	0	0	0	0	0	0	0	0	174.1947013383577	0	0	0
1.838907758842832	-121.5184475835213	1100.948993512713	0	0	0	0	0	0	0	0	0	0	0	0	181.4373994552791	0	0	0
1.842568276099021	-118.5630182246204	1155.026507160205	0	0	0	0	0	0	0	0	0	0	0	0	189.8097093706465	0	0	0
1.84622879335521	-118.1925481197733	1201.510381845522	0	0	0	0	0	0	0	0	0	0	0	0	196.56520618671	0	0	0
1.849889310611399	-111.4558097654699	1248.036739920814	0	0	0	0	0	0	0	0	0	0	0	0	203.8047055898787	0	0	0
1.853549827867587	-109.2753664076361	1288.446833930569	0	0	0	0	0	0	0	0	0	0	0	0	209.9361616746975	0	0	0
1.857210345123776	-100.6056885080783	1331.302367365599	0	0	0	0	0	0	0	0	0	0	0	0	216.4669160939273	0	0	0
1.860870862379965	-96.9063826601772	1363.998357350856	0	0	0	0	0	0	0	0	0	0	0	0	220.9971685560492	0	0	0
1.864531379636154	-88.60036535637398	1394.086067054286	0	0	0	0	0	0	0	0	0	0	0	0	225.4724202100509	0	0	0
1.868191896892343	-83.8372288908825	1416.293976877821	0	0	0	0	0	0	0	0	0	0	0	0	228.7856590623355	0	0	0
1.871852414148532	-75.20544391993791	1434.919845123977	0	0	0	0	0	0	0	0	0	0	0	0	231.9119801404059	0	0	0
1.875512931404721	-70.24777606409535	1450.299727293377	0	0	0	0	0	0	0	0	0	0	0	0	234.6712760874638	0	0	0
1.879173448660909	-61.92834417387616	1463.395062444177	0	0	0	0	0	0	0	0	0	0	0	0	237.3135818436967	0	0	0
1.882833965917098	-56.89604785670887	1467.867574855075	0	0	0	0	0	0	0	0	0	0	0	0	238.5278344561193	0	0	0
1.886494483173287	-48.30546286479695	1469.102346302342	0	0	0	0	0	0	0	0	0	0	0	0	239.4420778580682	0	0	0
1.890155000429476	-42.28946787124683	1469.103368491991	0	0	0	0	0	0	0	0	0	0	0	0	240.3046093223143	0	0	0
1.893815517685665	-33.7782436839169	1466.123644838106	0	0	0	0	0	0	0	0	0	0	0	0	240.9502636778838	0	0	0
1.897476034941853	-29.01176698415477	1456.233468544573	0	0	0	0	0	0	0	0	0	0	0	0	240.2661108536127	0	0	0
1.901136552198042	-20.18931555146104	1445.513059000252	0	0	0	0	0	0	0	0	0	0	0	0	239.3063554373214	0	0	0
1.904797069454231	-12.63931911924637	1429.62336315214	0	0	0	0	0	0	0	0	0	0	0	0	237.9541924294128	0	0	0
1.90845758671042	-5.664935853290427	1404.177403010195	0	0	0	0	0	0	0	0	0	0	0	0	236.0804242714685	0	0	0
1.912118103966609	2.038063760896378	1381.701860734223	0	0	0	0	0	0	0	0	0	0	0	0	235.3204781565029	0	0	0
1.915778621222797	11.74386411572385	1358.555291277373	0	0	0	0	0	0	0	0	0	0	0	0	234.5375763704567	0	0	0
1.919439138478986	18.40803450318872	1327.108695344196	0	0	0	0	0	0	0	0	0	0	0	0	231.9615649517899	0	0	0
1.923099655735175	28.71529813202253	1296.069705104371	0	0	0	0	0	0	0	0	0	0	0	0	229.1880733316708	0	0	0
1.926760172991364	38.05816371985909	1265.48361482193	0	0	0	0	-1.351495242431038e-12	4.021243911586734e-13	0	0	0	0	0	0	226.6418109397175	0	0	-2.17560287827209e-13
1.930420690247553	47.62751677587382	1230.529699616555	0	0	0	0	-1.366367928666453e-12	4.027921945902555e-13	0	0	0	0	0	0	223.8463114284772	0	0	-2.149658778183617e-13
1.934081207503741	54.48663067736706	1191.425903073796	0	0	0	0	-4.115850760280398e-12	1.202125264763463e-12	0	0	0	0	0	0	219.9037989718432	0	0	-6.313578835171594e-13
1.93774172475993	65.83596989574416	1156.535499664966	0	0	0	0	-7.567573191137845e-12	2.201506566991615e-12	0	0	0	0	0	0	215.8990941064602	0	0	-1.12841955809247e-12
1.941402242016119	72.59508498843768	1115.239362706785	0	0	0	0	-1.390098408815615e-11	4.030355210151648e-12	0	0	0	0	0	0	210.4390704311655	0	0	-2.013017396936269e-12
1.945062759272308	79.32207355772297	1070.761802912079	0	0	0	0	-2.557283997164334e-11	7.359042583207015e-12	0	0	0	0	0	0	204.5784874769917	0	0	-3.594605448789873e-12
1.948723276528497	85.01663284118501	1027.660296053584	0	0	0	0	-5.270036201978545e-11	1.50464752925623e-11	0	0	0	0	0	0	198.8132054765092	0	0	-7.170957035943084e-12
1.952383793784686	91.46345602325418	985.1731222374684	0	0	0	0	-1.002041569320555e-10	2.848119721993328e-11	0	0	0	0	0	0	192.8457294455339	0	0	-1.315315347051025e-11
1.956044311040874	95.67058251238039	937.3157361696231	0	0	0	0	-1.727349398415337e-10	4.891874889575165e-11	0	0	0	0	0	0	185.3333610895478	0	0	-2.182935729309654e-11
1.959704828297063	100.9744669895248	889.5223854524087	0	0	0	0	-2.803460697108885e-10	7.89712216192039e-11	0	0	0	0	0	0	177.4331001359052	0	0	-3.406482886934199e-11
1.963365345553252	102.7384318071449	839.4317462248408	0	0	0	0	-4.369074625568521e-10	1.223920347796999e-10	0	0	0	0	0	0	168.2831235194682	0	0	-5.092920620366186e-11
1.967025862809441	106.1047583067267	790.3090649212982	0	0	0	0	-6.535620271581538e-10	1.823023538202063e-10	0	0	0	0	0	0	158.6770404141111	0	0	-7.285743693082279e-11
1.97068638006563	110.008177811294	744.0749089954539	0	0	0	0	-9.396948399953892e-10	2.611759945699045e-10	0	0	0	0	0	0	149.7403937396376	0	0	-9.98635760288353e-11
1.974346897321819	110.8503254427997	697.2806271686608	0	0	0	0	-1.290315907315613e-09	3.573913920752061e-10	0	0	0	0	0	0	140.5631726873408	0	0	-1.30299776868508e-10
1.978007414578007	112.2262935431425	647.611452032815	0	0	0	0	-1.695802947700291e-09	4.682443099948131e-10	0	0	0	0	0	0	130.9142758300014	0	0	-1.621319431004765e-10
1.981667931834196	111.9543568631075	596.1910706830237	0	0	0	0	-2.144049315003352e-09	5.904750362104589e-10	0	0	0	0	0	0	120.8769346223623	0	0	-1.933079036944069e-10
1.985328449090385	112.4604978470081	549.5244056877364	0	0	0	0	-2.581450960086791e-09	7.098722238110181e-10	0	0	0	0	0	0	111.8583331364003	0	0	-2.18485399900033e-10
1.988988966346574	110.5050741025452	502.6433588026053	0	0	0	0	-2.882926404213894e-09	7.929684118496438e-10	0	0	0	0	0	0	102.67662470459	0	0	-2.278555355137488e-10
1.992649483602763	108.5266252727128	459.0332422791805	0	0	0	0	-3.059248564351084e-09	8.425838430581922e-10	0	0	0	0	0	0	94.16578906597475	0	0	-2.245968428616435e-10
1.996310000858951	104.2558039455445	415.8283730973901	0	0	0	0	-3.294295085729705e-09	9.088311048173943e-10	0	0	0	0	0	0	85.59538071204871	0	0	-2.233945274184825e-10
1.99997051811514	100.4394384354393	371.8811508035731	0	0	0	0	-3.536331906407617e-09	9.770069137319856e-10	0	0	0	0	0	0	76.99193303906142	0	0	-2.20167258829128e-10
2.003631035371329	95.2499445169656	327.5778920105171	0	0	0	0	-3.514956957632774e-09	9.71861855970527e-10	0	0	0	0	0	0	68.27332165722711	0	0	-1.996688498650431e-10
2.007291552627518	90.70585527150708	289.8106420072912	0	0	0	0	-3.25512341823387e-09	9.02042465227323e-10	0	0	0	0	0	0	60.87200389952637	0	0	-1.672205115689542e-10
2.010952069883706	84.02878839972345	253.8518859827807	0	0	0	0	-2.981316602401784e-09	8.309030401423133e-10	0	0	0	0	0	0	53.6418623041322	0	0	-1.367329119155152e-10
2.014612587139895	82.14443484146757	224.9624128481592	0	0	0	0	-2.706096409763496e-09	7.595728639850124e-10	0	0	0	0	0	0	48.23299922175429	0	0	-1.093291757463601e-10
2.018273104396084	79.73028417702065	198.4431775890024	0	0	0	0	-2.363054006227507e-09	6.675733552329388e-10	0	0	0	0	0	0	43.25472843235346	0	0	-8.296074555646363e-11
2.021933621652273	71.06620980947494	163.906479160481	0	0	0	0	-1.958329824442225e-09	5.556604045752357e-10	0	0	0	0	0	0	36.25173734765257	0	0	-5.888437067594101e-11
2.025594138908462	62.20877052631888	128.2377935280607	0	0	0	0	-1.509590519308733e-09	4.287218636003103e-10	0	0	0	0	0	0	29.1080765989206	0	0	-3.828655744371025e-11
2.029254656164651	58.62002328171327	101.3574452166412	0	0	0	0	-1.068857152643349e-09	3.039884727644101e-10	0	0	0	0	0	0	24.17005389347288	0	0	-2.215900995690286e-11
2.032915173420839	54.36717645655349	77.30307014669448	0	0	0	0	-7.067169847150113e-10	2.021878372204641e-10	0	0	0	0	0	0	19.69770863047874	0	0	-1.133555304431058e-11
2.036575690677028	44.90862761851942	58.72381086145994	0	0	0	0	-4.302848735694628e-10	1.241883042942555e-10	0	0	0	0	0	0	15.47155828902011	0	0	-4.908520660650803e-12
2.040236207933217	32.36136338939192	46.82820001665663	0	0	0	0	-2.368363075267646e-10	6.90543190236419e-11	0	0	0	0	0	0	11.87313850301508	0	0	-1.818037882525291e-12
2.043896725189406	13.72549452516695	22.09537663977578	0	0	0	0	-1.421010965369232e-10	4.205893206974415e-11	0	0	0	0	0	0	5.379195448571273	0	0	-1.364321508060348e-12
2.047557242445595	-0.3519393208893901	-0.6258341191166094	0	0	0	0	-1.528362716700985e-10	4.627047632133412e-11	0	0	0	0	0	0	-0.1466863157526931	0	0	-3.573539755492411e-12
2.051217759701784	-0.0006914391165834216	-0.001395024637614745	0	0	0	0	-3.513254027460752e-10	1.087572541388241e-10	0	0	0	0	0	0	-0.0003120597903650951	0	0	-1.282391094807001e-11
2.054878276957973	-0.0001246352999274528	-0.0002162107539235567	0	0	0	0	-1.090399301121418e-09	3.427870259576528e-10	0	0	0	0	0	0	-5.092059066145489e-05	0	0	-4.322220983196497e-11
2.058538794214162	-7.946986225596981e-05	-0.0001148472122070604	0	0	0	0	-3.392865716806698e-09	1.082212207074738e-09	0	0	0	0	0	0	-2.910116805895794e-05	0	0	-1.32219473569556e-10
2.06219931147035	-4.147080470489166e-06	-5.926204382051972e-06	0	0	0	0	-9.637999032168031e-09	3.13425247977968e-09	0	0	0	0	0	0	-1.507883401062339e-06	0	0	-3.616699206565119e-10
2.065859828726539	-9.448670790383066e-08	-1.391812593335403e-07	0	0	0	0	-2.475904467742592e-08	8.229528673293867e-09	0	0	0	0	0	0	-3.489544513037723e-08	0	0	-8.909709441427731e-10
2.069520345982728	-5.762323144691928e-09	-8.06682677339069e-09	0	0	0	0	-5.826816081141871e-08	1.979652166019086e-08	0	0	0	0	0	0	-2.068587652906862e-09	0	0	-2.010037181300819e-09
